<svg width="32" height="32" viewBox="0 0 32 32" fill="none" xmlns="http://www.w3.org/2000/svg">
<path d="M11.3333 6.79997L14.9333 10.4C15.4667 10.9333 16.5333 10.9333 17.0667 10.4L20.6667 6.79997C21.6 5.86663 20.9333 4.1333 19.6 4.1333H12.4C11.0667 4.26663 10.4 5.86663 11.3333 6.79997Z" fill="#0F96E3" stroke="#0F96E3" stroke-width="1.5" stroke-miterlimit="10" stroke-linecap="round" stroke-linejoin="round"/>
<path d="M11.3333 25.1999L14.9333 21.6C15.4667 21.0666 16.5333 21.0666 17.0667 21.6L20.6667 25.1999C21.6 26.1333 20.9333 27.8666 19.6 27.8666H12.4C11.0667 27.7333 10.4 26.1333 11.3333 25.1999Z" fill="#F9B919" stroke="#F9B919" stroke-width="1.5" stroke-miterlimit="10" stroke-linecap="round" stroke-linejoin="round"/>
<path d="M2.93334 15.3333L5.86667 10.6667C6.26667 9.86666 7.33334 9.73333 8 10.4L12.6667 15.0667C13.2 15.6 13.2 16.4 12.6667 16.9333L8 21.6C7.33334 22.2667 6.4 22.1333 5.86667 21.3333L2.93334 16.6667C2.53334 16.2667 2.53334 15.7333 2.93334 15.3333Z" stroke="white" stroke-width="1.5" stroke-miterlimit="10" stroke-linecap="round" stroke-linejoin="round"/>
<path d="M29.0667 15.3332L26.1333 10.6666C25.7333 9.99989 24.6667 9.86656 24 10.3999L19.3333 15.0666C18.8 15.5999 18.8 16.3999 19.3333 16.9332L24 21.5999C24.6667 22.2666 25.6 22.1332 26.1333 21.3332L29.0667 16.6666C29.4667 16.2666 29.4667 15.7332 29.0667 15.3332Z" stroke="white" stroke-width="1.5" stroke-miterlimit="10" stroke-linecap="round" stroke-linejoin="round"/>
</svg>
